<?xml version="1.0" standalone="no"?>
<!DOCTYPE svg PUBLIC "-//W3C//DTD SVG 20010904//EN"
 "http://www.w3.org/TR/2001/REC-SVG-20010904/DTD/svg10.dtd">
<svg version="1.0" xmlns="http://www.w3.org/2000/svg"
 width="24.000000pt" height="24.000000pt" viewBox="0 0 32.000000 32.000000"
 preserveAspectRatio="xMidYMid meet">

<g transform="translate(0.000000,32.000000) scale(0.100000,-0.100000)"
fill="#000000" stroke="none">
<path d="M113 295 c-42 -18 -65 -56 -65 -104 1 -49 23 -85 62 -101 51 -21 37
-39 -32 -43 l-63 -3 68 -2 c54 -2 67 1 67 13 0 8 5 15 10 15 6 0 10 -7 10 -15
0 -12 13 -15 68 -13 l67 2 -62 3 c-70 4 -84 22 -33 43 39 16 61 52 62 101 0
49 -24 87 -67 105 -42 17 -51 17 -92 -1z m118 -34 c71 -72 2 -191 -97 -167
-42 11 -74 53 -74 98 0 89 107 132 171 69z"/>
<path d="M175 220 c-31 -20 -39 -40 -19 -47 6 -2 21 12 32 32 12 19 20 35 19
35 -1 0 -15 -9 -32 -20z"/>
<path d="M88 3 c39 -2 105 -2 145 0 39 1 7 3 -73 3 -80 0 -112 -2 -72 -3z"/>
</g>
</svg>
