<?xml version="1.0" standalone="no"?>
<!DOCTYPE svg PUBLIC "-//W3C//DTD SVG 20010904//EN"
 "http://www.w3.org/TR/2001/REC-SVG-20010904/DTD/svg10.dtd">
<svg version="1.0" xmlns="http://www.w3.org/2000/svg"
 width="24pt" height="24pt" viewBox="0 0 100.000000 100.000000"
 preserveAspectRatio="xMidYMid meet">

<g transform="translate(0.000000,100.000000) scale(0.100000,-0.100000)"
fill="#000000" stroke="none">
<path d="M394 897 c-3 -8 -4 -34 -2 -58 2 -37 7 -45 26 -47 40 -6 27 -37 -21
-49 -143 -39 -248 -194 -234 -346 7 -74 54 -174 104 -218 66 -58 137 -84 228
-84 136 0 238 63 297 183 29 59 33 76 33 147 0 71 -4 89 -32 145 -33 66 -34
85 -4 75 11 -3 28 6 46 25 l29 31 -47 46 -46 47 -31 -29 c-19 -18 -28 -35 -25
-46 10 -29 -9 -29 -70 2 -32 16 -66 29 -76 29 -28 0 -25 38 4 42 20 3 22 9 22
58 l0 55 -98 3 c-77 2 -98 0 -103 -11z m37 -29 l2 -23 4 23 c7 37 23 25 23
-18 0 -22 -4 -40 -10 -40 -5 0 -10 6 -11 13 0 10 -2 10 -6 0 -10 -27 -23 -11
-23 27 0 42 19 57 21 18z m61 -15 l1 -38 4 38 c6 50 23 48 23 -3 0 -36 -2 -40
-25 -40 -22 0 -25 4 -25 40 0 51 19 53 22 3z m59 25 c0 -10 2 -10 6 0 10 26
23 10 23 -28 0 -45 -19 -56 -21 -12 l-2 27 -4 -27 c-7 -42 -23 -33 -23 12 0
22 5 40 10 40 6 0 10 -6 11 -12z m-11 -103 c0 -11 -12 -15 -45 -15 -33 0 -45
4 -45 15 0 11 12 15 45 15 33 0 45 -4 45 -15z m278 -92 l-22 -23 -33 32 -33
32 22 23 22 23 33 -32 33 -32 -22 -23z m-184 23 c63 -31 119 -89 149 -155 30
-65 30 -187 0 -252 -30 -66 -86 -124 -151 -156 -48 -24 -70 -28 -137 -28 -67
0 -89 4 -137 28 -251 123 -229 485 35 579 72 26 168 19 241 -16z m120 -25 c27
-30 9 -47 -20 -20 -13 12 -21 26 -18 30 8 14 19 11 38 -10z"/>
<path d="M396 680 c-100 -39 -176 -149 -176 -255 0 -144 131 -275 275 -275
107 0 217 76 255 178 19 49 28 140 12 116 -4 -6 -14 -14 -22 -17 -12 -4 -11
-6 3 -6 9 -1 17 -7 17 -14 0 -29 -29 -107 -50 -137 -19 -26 -24 -29 -38 -18
-15 11 -15 11 -4 -4 11 -14 8 -19 -18 -38 -30 -21 -108 -50 -136 -50 -7 0 -15
8 -17 18 -4 16 -5 16 -6 0 0 -10 -7 -18 -14 -18 -29 0 -107 29 -137 50 -26 19
-29 24 -18 38 11 15 11 15 -4 4 -14 -11 -19 -9 -37 17 -24 33 -51 104 -51 132
0 9 8 20 18 22 16 4 16 5 0 6 -11 1 -18 9 -18 20 0 28 27 99 51 132 18 26 23
28 37 17 15 -11 15 -11 4 4 -11 14 -9 19 17 37 33 24 104 51 132 51 9 0 20 -8
22 -17 4 -17 5 -17 6 0 0 9 7 17 14 17 29 0 107 -29 137 -50 26 -19 29 -24 18
-38 -10 -15 -10 -15 2 -4 12 11 19 8 40 -15 14 -16 21 -22 16 -13 -68 110
-210 157 -330 110z"/>
<path d="M350 557 c0 -7 23 -35 51 -62 28 -28 55 -60 60 -73 5 -12 20 -27 34
-32 14 -5 29 -20 34 -33 18 -47 72 -63 79 -24 4 22 -15 46 -45 58 -13 5 -28
20 -33 34 -5 14 -20 29 -32 34 -13 5 -45 32 -73 60 -48 50 -75 64 -75 38z m70
-52 c30 -30 52 -55 49 -55 -2 0 -29 25 -59 55 -30 30 -52 55 -49 55 2 0 29
-25 59 -55z m98 -78 c4 -20 -25 -34 -40 -19 -15 15 -1 44 19 40 10 -2 19 -11
21 -21z m73 -73 c9 -11 9 -18 1 -26 -14 -14 -36 2 -55 42 l-14 27 27 -14 c16
-7 34 -20 41 -29z"/>
</g>
</svg>
