<?xml version="1.0" standalone="no"?>
<!DOCTYPE svg PUBLIC "-//W3C//DTD SVG 20010904//EN"
 "http://www.w3.org/TR/2001/REC-SVG-20010904/DTD/svg10.dtd">
<svg version="1.0" xmlns="http://www.w3.org/2000/svg"
 width="24pt" height="24pt" viewBox="0 0 512.000000 293.000000"
 preserveAspectRatio="xMidYMid meet">

<g transform="translate(0.000000,293.000000) scale(0.100000,-0.100000)"
fill="#000000" stroke="none">
<path d="M1693 2915 c-304 -66 -492 -362 -429 -675 44 -215 178 -390 371 -481
154 -73 57 -70 1822 -67 l1583 3 25 25 c53 53 49 136 -8 170 -31 20 -61 20
-1604 20 -1126 0 -1587 3 -1625 11 -321 68 -472 473 -257 688 65 65 137 95
229 95 146 1 238 -83 259 -236 7 -51 14 -66 40 -90 59 -53 146 -29 171 46 29
89 -37 269 -136 368 -117 117 -271 160 -441 123z"/>
<path d="M330 2555 c-206 -58 -336 -259 -309 -476 20 -164 107 -296 252 -383
100 -60 152 -66 534 -66 316 0 340 1 369 19 66 40 66 142 0 182 -29 18 -53 19
-367 19 -379 0 -395 2 -474 72 -65 58 -98 126 -99 208 -1 80 23 131 82 177 45
34 112 50 159 38 15 -3 44 -23 64 -44 31 -30 39 -48 45 -90 12 -91 75 -137
147 -107 55 23 71 54 65 134 -6 87 -34 149 -98 216 -92 98 -238 137 -370 101z"/>
<path d="M2170 1520 c-887 -7 -831 -2 -995 -79 -347 -164 -546 -574 -450 -931
49 -185 184 -350 355 -433 262 -128 516 -93 705 97 261 263 205 683 -111 833
-69 33 -87 37 -178 41 -85 3 -111 1 -165 -18 -104 -35 -190 -104 -220 -178
-31 -73 22 -152 101 -152 37 0 46 6 92 55 60 64 86 75 169 75 152 -1 257 -108
257 -262 0 -222 -208 -385 -433 -338 -219 45 -377 238 -377 460 1 280 196 530
465 594 67 16 1052 26 2554 26 l803 0 34 34 c52 52 44 128 -18 166 -32 20 -49
20 -913 18 -484 -2 -1238 -5 -1675 -8z"/>
<path d="M2300 1121 c-87 -27 -174 -103 -212 -186 -34 -75 -33 -200 3 -275 51
-107 153 -179 266 -188 48 -4 68 -1 89 12 32 22 58 80 49 115 -10 39 -54 80
-94 87 -88 14 -121 47 -121 120 0 28 8 44 34 70 l34 34 1031 0 c1130 0 1084
-2 1115 59 30 56 10 127 -41 150 -28 13 -2112 14 -2153 2z"/>
</g>
</svg>
